<?xml version="1.0" standalone="no"?>
<!DOCTYPE svg PUBLIC "-//W3C//DTD SVG 20010904//EN"
 "http://www.w3.org/TR/2001/REC-SVG-20010904/DTD/svg10.dtd">
<svg version="1.0" xmlns="http://www.w3.org/2000/svg"
 width="406.000000pt" height="406.000000pt" viewBox="0 0 406.000000 406.000000"
 preserveAspectRatio="xMidYMid meet">

<g transform="translate(0.000000,406.000000) scale(0.100000,-0.100000)"
fill="#000000" stroke="none">
<path d="M1615 3320 c-110 -28 -225 -76 -316 -131 -96 -57 -123 -79 -97 -79 9
0 29 7 44 15 16 8 47 15 68 15 24 0 68 14 114 35 134 64 315 105 462 105 60 0
223 -23 282 -40 37 -11 47 -23 83 -98 18 -38 31 -34 43 11 11 39 21 38 105
-10 195 -115 342 -272 437 -468 42 -86 83 -219 95 -302 5 -43 14 -60 46 -92
l39 -39 0 33 c0 55 -29 206 -56 290 -56 174 -142 314 -278 451 -95 96 -205
174 -318 227 -64 30 -68 34 -68 64 l0 33 -59 0 c-37 0 -61 -5 -63 -12 -3 -9
-18 -9 -63 0 -95 19 -415 14 -500 -8z"/>
<path d="M842 3168 c24 -109 94 -204 189 -255 l44 -23 1 -153 c1 -176 23 -286
80 -397 43 -84 57 -100 83 -100 28 0 27 8 -14 76 -19 32 -35 62 -35 66 0 13
51 -2 105 -32 28 -15 64 -45 80 -67 l30 -40 100 -6 c111 -7 229 -32 381 -78
l102 -31 58 40 c33 22 93 71 134 109 208 191 248 214 394 221 110 5 236 -12
236 -33 0 -23 -31 -88 -70 -145 -52 -76 -160 -176 -269 -248 -85 -56 -89 -60
-65 -66 79 -20 341 221 429 393 13 26 31 53 39 60 27 23 19 57 -21 90 -52 43
-186 108 -263 128 -167 42 -431 5 -611 -88 -23 -11 -42 -19 -43 -17 -1 2 -15
29 -30 61 -33 68 -114 156 -173 186 -78 39 -92 22 -68 -80 38 -165 -1 -265
-104 -263 -125 2 -274 154 -311 317 -18 81 10 116 132 163 105 40 161 103 183
205 l7 34 -23 -21 c-43 -39 -73 -48 -182 -54 -88 -6 -113 -11 -137 -28 l-29
-22 -37 25 c-20 14 -42 25 -48 25 -6 0 -53 6 -104 14 -64 10 -104 21 -127 38
-19 12 -35 26 -35 31 0 4 -4 7 -9 7 -5 0 -5 -18 1 -42z m1634 -559 c71 -13
156 -48 151 -62 -2 -6 -30 -9 -68 -8 -42 1 -105 -7 -176 -23 -140 -32 -158
-33 -178 -2 -49 74 101 126 271 95z"/>
<path d="M942 2858 c-43 -62 -116 -213 -140 -288 -42 -131 -60 -271 -54 -438
l2 -54 33 21 32 20 6 133 c10 217 68 396 179 556 l40 57 -23 17 c-33 26 -43
22 -75 -24z"/>
<path d="M2858 2221 c10 -103 -60 -216 -166 -268 -53 -26 -66 -28 -172 -28
-125 1 -261 29 -407 85 -40 16 -73 27 -73 25 0 -2 35 -23 78 -47 342 -195 634
-231 786 -97 80 70 111 164 86 254 -13 46 -66 105 -95 105 -7 0 -19 2 -27 5
-10 4 -13 -4 -10 -34z m93 -94 c5 -100 -40 -176 -131 -222 -37 -19 -160 -33
-160 -19 0 5 20 20 45 33 24 13 42 28 38 34 -3 6 -1 7 5 3 13 -8 74 44 101 87
11 18 25 55 31 82 20 84 19 83 46 52 13 -15 24 -38 25 -50z"/>
<path d="M1473 2182 c-8 -5 8 -12 45 -20 122 -26 316 -136 547 -312 216 -164
373 -237 486 -227 69 6 124 35 162 85 l28 37 -100 12 c-157 18 -294 65 -461
158 -45 24 -86 42 -91 39 -5 -3 -8 0 -7 6 5 18 -247 146 -362 184 -107 35
-225 53 -247 38z m962 -412 c55 -18 130 -35 168 -37 74 -6 82 -16 43 -52 -58
-55 -166 -29 -299 73 -90 68 -113 100 -51 68 22 -11 84 -34 139 -52z"/>
<path d="M1061 2160 c-73 -16 -204 -87 -267 -146 l-59 -54 50 30 c90 54 159
73 285 78 97 4 129 1 205 -19 162 -41 250 -83 505 -244 241 -153 373 -202 480
-179 l44 9 -69 40 c-37 22 -72 39 -77 38 -4 -2 -7 1 -5 6 2 9 -81 69 -303 218
-121 81 -290 164 -405 199 -72 21 -114 27 -215 30 -69 2 -145 -1 -169 -6z"/>
<path d="M983 1976 c-53 -12 -193 -72 -193 -82 0 -1 11 -34 25 -72 l26 -68 72
25 c64 23 88 26 212 26 132 0 145 -2 234 -33 51 -18 161 -70 245 -116 352
-194 508 -243 740 -233 66 3 131 8 144 12 12 4 22 3 22 -2 0 -10 -99 -35 -214
-54 -100 -17 -234 -6 -336 26 -96 31 -158 60 -310 148 -239 138 -384 190 -530
190 -88 1 -176 -19 -218 -48 l-23 -17 24 -43 c116 -207 338 -393 577 -485 227
-87 525 -94 757 -18 92 30 269 121 265 137 -1 7 2 10 8 6 20 -12 195 138 184
157 -4 6 -2 8 3 5 14 -9 86 71 77 85 -4 6 -3 8 3 5 6 -4 28 19 49 51 39 58
115 204 110 209 -2 2 -23 -6 -48 -16 -32 -15 -55 -36 -82 -76 -92 -133 -226
-184 -370 -141 -42 13 -52 13 -89 -1 -58 -22 -187 -21 -262 2 -76 23 -226 100
-380 197 -165 103 -317 182 -400 208 -90 28 -237 35 -322 16z"/>
<path d="M902 868 c-18 -18 -15 -36 8 -48 19 -10 20 -21 20 -151 0 -139 0
-140 -27 -165 -22 -20 -25 -29 -17 -42 10 -14 33 -17 150 -20 152 -3 199 5
253 45 64 49 92 173 61 267 -14 44 -77 102 -127 115 -54 15 -306 14 -321 -1z
m250 -69 c11 -6 26 -26 34 -44 17 -41 19 -164 3 -198 -14 -31 -48 -50 -80 -45
-24 3 -24 3 -27 151 l-3 147 26 0 c15 0 35 -5 47 -11z"/>
<path d="M1444 741 c-59 -15 -69 -34 -34 -64 17 -14 20 -29 20 -103 0 -81 1
-87 29 -115 34 -34 74 -38 128 -12 34 16 36 16 49 -2 11 -15 22 -17 70 -11 87
10 117 35 79 66 -11 9 -15 41 -17 128 l-3 117 -62 -2 c-90 -2 -128 -30 -88
-63 24 -20 17 -159 -8 -174 -34 -21 -47 16 -47 136 l0 108 -42 -1 c-24 -1 -57
-4 -74 -8z"/>
<path d="M1905 736 c-82 -26 -103 -49 -70 -76 11 -9 15 -33 15 -85 0 -52 -4
-76 -15 -85 -38 -31 0 -60 80 -60 59 0 95 15 95 39 0 11 -4 23 -10 26 -14 9
-13 138 2 153 18 18 46 14 58 -7 15 -30 12 -118 -6 -153 -15 -30 -15 -32 2
-45 21 -16 127 -17 155 -3 23 13 24 28 4 66 -9 17 -15 56 -15 96 0 83 -11 113
-49 133 -44 22 -85 19 -119 -10 -37 -31 -40 -31 -44 -2 -4 27 -28 31 -83 13z"/>
<path d="M2335 736 c-82 -26 -103 -49 -70 -76 11 -9 15 -33 15 -85 0 -52 -4
-76 -15 -85 -38 -31 0 -60 80 -60 59 0 95 15 95 39 0 11 -4 23 -10 26 -14 9
-13 138 2 153 18 18 46 14 58 -7 15 -30 12 -118 -6 -153 -15 -30 -15 -32 2
-45 21 -16 127 -17 155 -3 23 13 24 28 4 66 -9 17 -15 56 -15 96 0 83 -11 113
-49 133 -44 22 -85 19 -119 -10 -37 -31 -40 -31 -44 -2 -4 27 -28 31 -83 13z"/>
<path d="M2769 727 c-60 -32 -94 -97 -85 -162 17 -110 133 -166 243 -116 44
21 67 50 57 75 -8 20 -14 20 -50 1 -41 -21 -71 -19 -99 10 -40 39 -32 45 64
45 72 0 90 3 95 16 19 49 -11 106 -69 134 -54 26 -102 25 -156 -3z m110 -49
c13 -34 3 -48 -35 -48 -24 0 -34 5 -34 16 0 50 53 74 69 32z"/>
<path d="M3086 732 c-64 -22 -80 -46 -47 -71 21 -16 23 -24 19 -79 -3 -38 -11
-68 -21 -80 -43 -47 -7 -72 103 -72 53 0 73 4 91 20 l24 20 -33 27 c-29 26
-32 33 -32 86 0 61 9 69 44 42 64 -48 145 35 96 98 -28 35 -68 36 -100 2 -25
-27 -40 -25 -40 6 0 24 -36 25 -104 1z"/>
</g>
</svg>
