<?xml version="1.0" standalone="no"?>
<!DOCTYPE svg PUBLIC "-//W3C//DTD SVG 20010904//EN"
 "http://www.w3.org/TR/2001/REC-SVG-20010904/DTD/svg10.dtd">
<svg version="1.0" xmlns="http://www.w3.org/2000/svg"
 width="325.000000pt" height="260.000000pt" viewBox="0 0 325.000000 260.000000"
 preserveAspectRatio="xMidYMid meet">
<metadata>
Created by potrace 1.15, written by Peter Selinger 2001-2017
</metadata>
<g transform="translate(0.000000,260.000000) scale(0.100000,-0.100000)"
fill="#000000" stroke="none">
<path d="M1285 2186 c-40 -17 -89 -66 -121 -122 -14 -24 -29 -44 -34 -44 -4 0
-29 10 -56 21 -97 43 -197 20 -267 -61 -52 -62 -72 -177 -34 -202 6 -3 73 16
150 43 77 27 143 49 147 49 26 0 55 -68 184 -438 79 -228 151 -421 159 -429
14 -14 60 -1 473 143 l458 159 78 166 78 165 -60 175 c-92 265 -101 287 -118
294 -8 3 -231 -69 -495 -161 -531 -185 -513 -181 -554 -109 -27 47 -29 78 -8
95 9 7 77 34 152 60 76 26 142 55 147 63 14 23 -38 95 -89 124 -46 26 -141 31
-190 9z m620 -592 c94 -262 93 -255 37 -270 -13 -4 -24 -5 -26 -3 -6 9 -169
465 -170 478 -1 7 15 20 34 27 19 7 35 13 36 13 1 1 41 -110 89 -245z m-207 9
c33 -93 63 -175 67 -184 5 -13 -2 -20 -30 -29 -20 -7 -40 -8 -45 -4 -10 12
-132 355 -128 359 6 6 52 24 64 24 6 1 38 -74 72 -166z m-137 -163 c50 -140
93 -260 96 -266 4 -10 -67 -38 -75 -29 -7 7 -192 519 -192 531 0 13 61 34 72
25 4 -3 48 -121 99 -261z m603 249 c50 -40 21 -119 -44 -119 -65 0 -94 79 -44
119 15 12 34 21 44 21 10 0 29 -9 44 -21z m226 -208 c-33 -67 -62 -121 -64
-121 -11 0 -68 182 -59 191 14 14 178 67 181 58 2 -4 -24 -62 -58 -128z"/>
<path d="M1128 863 c21 -4 22 -8 22 -128 0 -109 -2 -124 -17 -128 -10 -3 18
-4 62 -4 44 0 61 2 38 4 l-43 4 0 125 c0 118 1 124 20 124 32 0 75 -26 96 -57
28 -43 26 -134 -5 -167 -14 -14 -20 -26 -14 -26 6 0 25 16 42 35 26 30 31 44
31 86 0 104 -46 140 -177 138 -43 -1 -68 -4 -55 -6z"/>
<path d="M1633 773 c14 -4 17 -17 17 -83 0 -53 -4 -80 -12 -83 -7 -3 7 -5 32
-5 25 0 39 2 33 5 -9 3 -13 28 -13 74 0 69 0 69 28 69 15 0 33 -5 40 -12 16
-16 16 -125 0 -131 -7 -3 7 -5 32 -5 25 0 37 2 28 5 -15 4 -18 16 -18 73 0 91
-26 119 -83 89 -16 -9 -22 -9 -25 0 -2 6 -20 10 -40 10 -20 -1 -29 -3 -19 -6z"/>
<path d="M1863 773 c14 -4 17 -17 17 -83 0 -53 -4 -80 -12 -83 -7 -3 7 -5 32
-5 25 0 39 2 33 5 -9 3 -13 28 -13 74 0 69 0 69 28 69 15 0 33 -5 40 -12 16
-16 16 -125 0 -131 -7 -3 7 -5 32 -5 25 0 37 2 28 5 -15 4 -18 16 -18 73 0 91
-26 119 -83 89 -16 -9 -22 -9 -25 0 -2 6 -20 10 -40 10 -20 -1 -29 -3 -19 -6z"/>
</g>
</svg>
